<svg id="Layer_1" data-name="Layer 1" xmlns="http://www.w3.org/2000/svg" viewBox="0 0 22 15"><defs><style>.cls-1{fill:#ec5350;}</style></defs><title>arrow_redArtboard 11 copy 4</title><path class="cls-1" d="M21.14,7.94h0A2.61,2.61,0,0,0,20.3,6l-.25-.25L14.86.56l-1.8,1.79L16.91,6.2v.23H3.63a4,4,0,0,0-1.69.32,3,3,0,0,0-1.1.9,3.08,3.08,0,0,0-.5,1A3.82,3.82,0,0,0,.22,9.89l0,2,2.58,0V9.81A.85.85,0,0,1,3,9.33a.61.61,0,0,1,.48-.22H16.91v.26L13.06,13.2l1.8,1.8,5.23-5.23.33-.33a3,3,0,0,0,.4-.49,1.79,1.79,0,0,0,.26-.66A1.19,1.19,0,0,0,21.13,8Z"/></svg>