<?xml version="1.0" encoding="utf-8"?>
<!-- Generator: Adobe Illustrator 22.1.0, SVG Export Plug-In . SVG Version: 6.00 Build 0)  -->
<svg version="1.1"
	 id="svg6718" xmlns:cc="http://creativecommons.org/ns#" xmlns:dc="http://purl.org/dc/elements/1.1/" xmlns:rdf="http://www.w3.org/1999/02/22-rdf-syntax-ns#" xmlns:svg="http://www.w3.org/2000/svg"
	 xmlns="http://www.w3.org/2000/svg" xmlns:xlink="http://www.w3.org/1999/xlink" x="0px" y="0px" viewBox="0 0 194.6 146.7"
	 style="enable-background:new 0 0 194.6 146.7;" xml:space="preserve">
<style type="text/css">
	.st0{fill:#FF5900;}
	.st1{fill:#FFFFFF;}
</style>
<path class="st0" d="M13.8-0.1C5.1,14.4,0.2,31.4,0.2,49.5c0,53.7,43.5,97.2,97.1,97.2c53.7,0,97.1-43.6,97.1-97.2
	c0-18.1-4.9-35.1-13.5-49.6H13.8z"/>
<path id="path6760" class="st1" d="M18.3,24.8h3.6v9.2c0,3.9-0.1,4.7-0.3,8.3l0.2,0.1c1.8-2.8,4.3-4,7.4-4c6.1,0,10.1,4.4,10.1,10.9
	c0,6.4-4.2,10.9-10.2,10.9c-3.2,0-5.8-1.5-7.4-4.2L21.6,56c0.2,0.8,0.3,1.3,0.3,1.8v1.3h-3.6L18.3,24.8L18.3,24.8z M21.8,49
	c0,4.6,2.8,7.8,6.8,7.8c3.9,0,6.8-3.2,6.8-7.9c0-4.5-2.8-7.6-6.8-7.6C24.6,41.4,21.8,44.5,21.8,49"/>
<path id="path6764" class="st1" d="M60,56c-1.6,2.7-4.2,4.1-7.5,4.1c-6,0-10.1-4.4-10.1-10.7c0-6.6,4.2-11.2,10.4-11.2
	c3.3,0,6,1.6,7.2,4.2l0.2-0.1c-0.2-0.8-0.3-1.1-0.3-1.9V39h3.5v20.3h-3.5v-1.4c0-0.8,0.1-1.1,0.2-1.8H60L60,56z M46.3,49
	c0,4.7,2.7,7.8,6.8,7.8c4.1,0,6.8-3.1,6.8-7.7s-2.8-7.8-7-7.8C49,41.4,46.3,44.5,46.3,49"/>
<path id="path6768" class="st1" d="M67.6,39h3.6v1.5c0,0.6-0.1,1-0.4,2l0.2,0.1c1.3-2.8,3.1-4,5.6-4c1.5,0,2.5,0.4,3.8,1.3l-2,2.8
	c-1.1-0.7-1.8-0.9-2.7-0.9c-2.7,0-4.7,3-4.7,7.1v10.2h-3.6V39L67.6,39z"/>
<path id="path6772" class="st1" d="M83.2,24.8h3.6v9.2c0,3.9-0.1,4.7-0.3,8.3l0.2,0.1c1.8-2.8,4.3-4,7.4-4c6.1,0,10.1,4.4,10.1,10.9
	c0,6.4-4.2,10.9-10.2,10.9c-3.2,0-5.8-1.5-7.5-4.2L86.5,56c0.2,0.8,0.3,1.3,0.3,1.8v1.3h-3.6L83.2,24.8L83.2,24.8L83.2,24.8z
	 M86.8,49c0,4.6,2.8,7.8,6.8,7.8c4,0,6.8-3.2,6.8-7.9c0-4.5-2.8-7.6-6.8-7.6C89.6,41.4,86.8,44.5,86.8,49"/>
<path id="path6776" class="st1" d="M112.4,31.7c0,1.3-1.1,2.5-2.5,2.5c-1.3,0-2.5-1.1-2.5-2.5c0-1.3,1.1-2.4,2.5-2.4
	C111.4,29.2,112.4,30.3,112.4,31.7 M108.2,39h3.6v20.3h-3.6V39z"/>
<path id="path6780" class="st1" d="M132.8,58.5c-1.8,1-3.7,1.5-6.1,1.5c-6.6,0-11-4.3-11-10.8c0-6.6,4.4-10.9,11.1-10.9
	c2.1,0,4,0.4,6,1.4v4.2c-1.4-1.5-3.5-2.3-5.9-2.3c-4.3,0-7.4,3.2-7.4,7.6s3.1,7.6,7.5,7.6c2.3,0,4.4-0.8,5.7-2.3L132.8,58.5
	L132.8,58.5z"/>
<path id="path6784" class="st1" d="M153,56c-1.6,2.7-4.2,4.1-7.5,4.1c-6,0-10.1-4.4-10.1-10.7c0-6.6,4.2-11.2,10.4-11.2
	c3.3,0,6,1.6,7.2,4.2l0.2-0.1c-0.3-0.8-0.3-1.1-0.3-1.9V39h3.5v20.3h-3.5v-1.4c0-0.8,0.1-1.1,0.2-1.8H153L153,56z M139.2,49
	c0,4.7,2.7,7.8,6.8,7.8s6.8-3.1,6.8-7.7s-2.8-7.8-7-7.8C142,41.4,139.2,44.5,139.2,49"/>
<path id="path6788" class="st1" d="M173.9,59.2V47.3c0-3.5-1.7-5.5-4.7-5.5c-2.9,0-5.1,2.3-5.1,5.6v11.9h-3.6V39h3.6v1.2
	c0,0.5-0.1,0.8-0.3,1.6l0.2,0.1c1.5-2.3,3.5-3.4,6-3.4c4.9,0,7.5,2.9,7.5,8.6v12.2L173.9,59.2L173.9,59.2z"/>
</svg>
