<?xml version="1.0" encoding="utf-8"?>
<!-- Generator: Adobe Illustrator 17.0.0, SVG Export Plug-In . SVG Version: 6.00 Build 0)  -->
<!DOCTYPE svg PUBLIC "-//W3C//DTD SVG 1.1//EN" "http://www.w3.org/Graphics/SVG/1.1/DTD/svg11.dtd">
<svg version="1.1" id="Layer_1" xmlns="http://www.w3.org/2000/svg" xmlns:xlink="http://www.w3.org/1999/xlink" x="0px" y="0px"
	 width="2688.568px" height="1053.919px" viewBox="527.516 2257.693 2688.568 1053.919"
	 enable-background="new 527.516 2257.693 2688.568 1053.919" xml:space="preserve">
<title>british_councilArtboard 15</title>
<path fill="#231F20" d="M1658.128,2633.33c-10.606-3.535-22.981-5.303-33.587-5.303h-65.406v83.083h60.103
	c12.374,0,26.516-1.768,38.89-5.303c14.142-7.071,22.98-21.213,21.213-37.122C1681.109,2652.775,1672.27,2638.633,1658.128,2633.33z
	 M1643.986,2509.589c-8.839-3.535-17.677-5.303-28.284-5.303h-54.8v77.78h51.264c12.374,0,22.98-1.768,33.587-7.071
	c17.677-12.374,22.981-35.355,10.606-53.032C1652.825,2516.66,1649.29,2513.125,1643.986,2509.589 M1509.639,2757.071v-298.746
	h109.599c17.677,0,35.354,1.768,51.264,8.839c26.516,12.374,44.193,38.89,44.193,67.174c1.768,26.516-12.374,49.496-35.354,61.87
	v3.535c33.587,5.303,56.567,35.354,54.799,67.174c0,40.658-26.516,74.245-65.406,83.083c-17.677,5.303-37.122,7.071-56.567,7.071
	H1509.639"/>
<polygon fill="#231F20" points="2031.119,2757.071 2031.119,2458.325 2082.383,2458.325 2082.383,2757.071 "/>
<polygon fill="#231F20" points="2402.341,2757.071 2402.341,2458.325 2453.605,2458.325 2453.605,2757.071 "/>
<path fill="#231F20" d="M2618.004,2456.557c28.284,0,56.567,5.303,83.083,15.909v49.497c-26.516-14.142-54.8-21.213-84.851-21.213
	c-28.284,0-51.264,8.839-51.264,31.819c0,61.87,153.792,37.122,153.792,137.883c0,54.799-47.729,90.154-114.902,90.154
	c-35.354,0-70.709-8.839-100.76-26.516l21.213-40.658c24.748,15.909,53.032,22.98,81.315,22.98c30.051,0,60.103-12.374,60.103-38.89
	c0-63.638-152.024-35.354-152.024-137.883C2511.941,2486.609,2554.366,2456.557,2618.004,2456.557L2618.004,2456.557z"/>
<polygon fill="#231F20" points="2959.175,2757.071 2959.175,2628.027 2814.222,2628.027 2814.222,2757.071 2764.725,2757.071 
	2764.725,2458.325 2814.222,2458.325 2814.222,2580.298 2959.175,2580.298 2959.175,2458.325 3010.44,2458.325 3010.44,2757.071 "/>
<path fill="#231F20" d="M1622.774,2808.335c28.284,0,56.567,5.303,83.083,17.677l-15.91,42.426
	c-19.445-8.839-40.658-14.142-61.87-14.142c-56.567,0-91.922,47.729-91.922,106.063c0,58.335,33.587,106.064,91.922,106.064
	c21.213,0,42.426-5.303,61.87-14.142l15.91,44.193c-26.516,12.374-54.8,17.677-83.083,17.677
	c-88.386,0-139.651-61.87-139.651-152.024C1481.355,2877.276,1532.62,2808.335,1622.774,2808.335L1622.774,2808.335z"/>
<path fill="#231F20" d="M2739.977,2808.335c28.284,0,56.567,5.303,83.083,17.677l-15.909,42.426
	c-19.445-10.606-40.658-14.142-61.87-14.142c-56.567,0-91.922,47.729-91.922,106.063c0,58.335,33.587,106.064,91.922,106.064
	c21.213,0,42.425-5.303,61.87-14.142l15.909,44.193c-26.516,12.374-54.8,17.677-83.083,17.677
	c-88.386,0-139.65-61.87-139.65-152.024C2600.327,2877.276,2651.591,2808.335,2739.977,2808.335L2739.977,2808.335z"/>
<path fill="#231F20" d="M1942.732,2960.36c0-65.406-37.122-106.064-86.619-106.064s-86.619,40.658-86.619,107.831
	c0,67.174,37.122,106.064,86.619,106.064S1942.732,3027.533,1942.732,2960.36z M1995.764,2960.36
	c0,90.154-56.567,153.792-141.418,153.792s-141.418-61.87-141.418-152.025c0-90.154,56.567-153.792,141.418-153.792
	S1995.764,2871.973,1995.764,2960.36"/>
<path fill="#231F20" d="M2031.119,2997.482v-185.611h51.264v187.379c0,49.497,26.516,68.941,68.941,68.941
	s68.941-17.677,68.941-68.941v-187.379h51.264v185.611c0,81.315-45.961,116.67-120.206,116.67S2031.119,3078.797,2031.119,2997.482
	L2031.119,2997.482z"/>
<path fill="#231F20" d="M2366.987,2893.186L2366.987,2893.186c0,10.606,0,26.516,0,38.89v176.773h-51.264v-296.978h54.8
	l137.883,203.289h1.768c-1.768-10.606-1.768-26.516-1.768-38.89v-164.399h51.264v296.978h-45.961L2366.987,2893.186
	L2366.987,2893.186z"/>
<polygon fill="#231F20" points="2861.95,3108.849 2861.95,2811.871 2913.215,2811.871 2913.215,3108.849 "/>
<polygon fill="#231F20" points="2959.175,3108.849 2959.175,2811.871 3010.44,2811.871 3010.44,3062.888 3127.109,3062.888 
	3127.109,3108.849 "/>
<polygon fill="#231F20" points="2363.451,2458.325 2121.273,2458.325 2121.273,2506.054 2216.73,2506.054 2216.73,2757.071 
	2267.994,2757.071 2267.994,2506.054 2363.451,2506.054 "/>
<path fill="#231F20" d="M1872.023,2504.286h-53.032v90.154h51.264c37.122,0,53.032-19.445,53.032-45.961
	C1923.287,2525.499,1907.378,2504.286,1872.023,2504.286L1872.023,2504.286z M1939.197,2757.071
	c-44.193-90.154-54.8-114.902-72.477-114.902h-47.729v114.902h-51.264v-298.746h100.76c76.012,0,106.064,40.658,106.064,86.619
	c1.768,35.355-21.213,67.174-54.799,76.012l0,0c14.142,7.071,28.284,35.354,77.78,134.347L1939.197,2757.071z"/>
<path fill="#231F20" d="M1009.372,2601.511c0,93.689-76.012,169.702-169.702,169.702s-169.702-76.012-169.702-169.702
	c0-93.69,76.012-169.702,169.702-169.702l0,0C933.36,2431.809,1009.372,2507.821,1009.372,2601.511L1009.372,2601.511z"/>
<path fill="#231F20" d="M1373.524,2601.511c0,93.689-76.012,169.702-169.702,169.702c-93.69,0-169.702-76.012-169.702-169.702
	c0-93.69,76.012-169.702,169.702-169.702l0,0C1297.512,2431.809,1373.524,2507.821,1373.524,2601.511z"/>
<path fill="#231F20" d="M1009.372,2965.663c0,93.69-76.012,169.702-169.702,169.702s-169.702-76.012-169.702-169.702
	c0-93.689,76.012-169.702,169.702-169.702l0,0C933.36,2795.961,1009.372,2871.973,1009.372,2965.663L1009.372,2965.663z"/>
<path fill="#231F20" d="M1373.524,2965.663c0,93.69-76.012,169.702-169.702,169.702c-93.69,0-169.702-76.012-169.702-169.702
	c0-93.689,76.012-169.702,169.702-169.702l0,0C1297.512,2795.961,1373.524,2871.973,1373.524,2965.663z"/>
</svg>
