<?xml version="1.0" encoding="utf-8"?>
<!-- Generator: Adobe Illustrator 17.0.0, SVG Export Plug-In . SVG Version: 6.00 Build 0)  -->
<!DOCTYPE svg PUBLIC "-//W3C//DTD SVG 1.1//EN" "http://www.w3.org/Graphics/SVG/1.1/DTD/svg11.dtd">
<svg version="1.1" id="Layer_1" xmlns="http://www.w3.org/2000/svg" xmlns:xlink="http://www.w3.org/1999/xlink" x="0px" y="0px"
	 width="960px" height="560px" viewBox="0 0 960 560" enable-background="new 0 0 960 560" xml:space="preserve">
<title>arrowback_blackArtboard 11</title>
<path fill="#A186BE" d="M77.547,288.427L77.547,288.427c-0.188-27.4,11.039-53.641,30.987-72.427l9.333-9.333L312,12.907
	l66.827,66.827L235.093,223.467v8.587H730.88c21.774-0.695,43.436,3.383,63.467,11.947c29.688,14.061,51.387,40.841,58.987,72.8
	c3.762,14.496,5.396,29.461,4.853,44.427v74.667H762.24V358.24c0.381-6.343-1.324-12.636-4.853-17.92
	c-4.191-5.396-10.718-8.451-17.547-8.213H235.093v9.707L378.827,484.8L312,552L116.747,356.747l-12.693-12.32
	C98.72,339.285,93.732,333.797,89.12,328c-4.678-7.569-7.965-15.914-9.707-24.64c0-4.107,0-7.84-1.867-11.947V288.427z"/>
</svg>
