<svg enable-background="new 0 185.879 612 418.758" height="418.758" viewBox="0 185.879 612 418.758" width="612" xmlns="http://www.w3.org/2000/svg"><path d="m596.076 398.24c.171-20.48-8.315-40.079-23.367-53.967l-6.955-6.955-144.376-144.376-50.073 49.795 107.1 107.1v6.398h-369.425c-16.131-.477-32.173 2.561-47.013 8.902-12.058 5.774-22.553 14.36-30.6 25.036-6.295 8.347-11.009 17.775-13.909 27.818-2.993 11.238-4.121 22.891-3.338 34.495v55.636h71.771v-57.862c.414-4.923 2.36-9.592 5.564-13.353 3.292-3.96 8.204-6.212 13.353-6.12h373.598v7.233l-107.1 106.544 50.073 50.073 145.489-145.489 9.18-9.18c4.179-4.139 7.909-8.708 11.127-13.631 3.612-5.576 6.071-11.819 7.233-18.36.796-2.621 1.263-5.331 1.391-8.067z" fill="#33a992"/></svg>