<?xml version="1.0" encoding="utf-8"?>
<!-- Generator: Adobe Illustrator 17.0.0, SVG Export Plug-In . SVG Version: 6.00 Build 0)  -->
<!DOCTYPE svg PUBLIC "-//W3C//DTD SVG 1.1//EN" "http://www.w3.org/Graphics/SVG/1.1/DTD/svg11.dtd">
<svg version="1.1" id="Layer_1" xmlns="http://www.w3.org/2000/svg" xmlns:xlink="http://www.w3.org/1999/xlink" x="0px" y="0px"
	 width="612px" height="418.758px" viewBox="0 0 612 418.758" enable-background="new 0 0 612 418.758" xml:space="preserve">
<title>arrow_blackArtboard 11 copy 3</title>
<path fill="#33A992" d="M10.159,215.499c0.128,2.736,0.595,5.446,1.391,8.067c1.162,6.541,3.621,12.784,7.233,18.36
	c3.218,4.923,6.948,9.492,11.127,13.631l9.18,9.18l145.489,145.489l50.073-50.073l-107.1-106.544v-7.233H501.15
	c5.149-0.092,10.061,2.16,13.353,6.12c3.204,3.761,5.15,8.43,5.564,13.353v57.862h71.771v-55.636
	c0.783-11.604-0.345-23.257-3.338-34.495c-2.9-10.043-7.614-19.471-13.909-27.818c-8.047-10.676-18.542-19.262-30.6-25.036
	c-14.84-6.341-30.882-9.379-47.013-8.902H127.553v-6.398l107.1-107.1L184.58,8.531L40.204,152.907l-6.955,6.955
	C18.197,173.75,9.711,193.349,9.882,213.829l0,0L10.159,215.499z"/>
</svg>
