<?xml version="1.0" encoding="utf-8"?>
<!-- Generator: Adobe Illustrator 17.0.0, SVG Export Plug-In . SVG Version: 6.00 Build 0)  -->
<!DOCTYPE svg PUBLIC "-//W3C//DTD SVG 1.1//EN" "http://www.w3.org/Graphics/SVG/1.1/DTD/svg11.dtd">
<svg version="1.1" id="Layer_1" xmlns="http://www.w3.org/2000/svg" xmlns:xlink="http://www.w3.org/1999/xlink" x="0px" y="0px"
	 width="960px" height="560px" viewBox="0 0 960 560" enable-background="new 0 0 960 560" xml:space="preserve">
<title>arrowback_blackArtboard 11</title>
<path fill="#A186BE" d="M858.287,288.427v2.986c-1.867,4.107-1.867,7.84-1.867,11.947c-1.742,8.726-5.029,17.071-9.707,24.64
	c-4.612,5.797-9.6,11.285-14.934,16.427l-12.693,12.32L623.833,552l-66.827-67.2L700.74,341.814v-9.707H195.993
	c-6.829-0.238-13.356,2.817-17.547,8.213c-3.529,5.284-5.234,11.577-4.853,17.92v77.655H77.646v-74.667
	c-0.543-14.966,1.091-29.931,4.853-44.427c7.6-31.959,29.299-58.739,58.987-72.8c20.031-8.564,41.693-12.642,63.467-11.947H700.74
	v-8.587L557.006,79.734l66.827-66.827l194.133,193.76l9.333,9.333C847.247,234.786,858.474,261.027,858.287,288.427L858.287,288.427
	L858.287,288.427z"/>
</svg>
