<?xml version="1.0" encoding="utf-8"?>
<!-- Generator: Adobe Illustrator 17.0.0, SVG Export Plug-In . SVG Version: 6.00 Build 0)  -->
<!DOCTYPE svg PUBLIC "-//W3C//DTD SVG 1.1//EN" "http://www.w3.org/Graphics/SVG/1.1/DTD/svg11.dtd">
<svg version="1.1" id="Layer_1" xmlns="http://www.w3.org/2000/svg" xmlns:xlink="http://www.w3.org/1999/xlink" x="0px" y="0px"
	 width="612px" height="418.758px" viewBox="0 185.879 612 418.758" enable-background="new 0 185.879 612 418.758"
	 xml:space="preserve">
<title>arrow_blackArtboard 11 copy 3</title>
<path fill="#33A992" d="M596.076,398.24L596.076,398.24c0.171-20.48-8.315-40.079-23.367-53.967l-6.955-6.955L421.378,192.942
	l-50.073,49.795l107.1,107.1v6.398H108.98c-16.131-0.477-32.173,2.561-47.013,8.902c-12.058,5.774-22.553,14.36-30.6,25.036
	c-6.295,8.347-11.009,17.775-13.909,27.818c-2.993,11.238-4.121,22.891-3.338,34.495v55.636h71.771V450.26
	c0.414-4.923,2.36-9.592,5.564-13.353c3.292-3.96,8.204-6.212,13.353-6.12h373.598v7.233l-107.1,106.544l50.073,50.073
	l145.489-145.489l9.18-9.18c4.179-4.139,7.909-8.708,11.127-13.631c3.612-5.576,6.071-11.819,7.233-18.36
	c0.796-2.621,1.263-5.331,1.391-8.067L596.076,398.24z"/>
</svg>
