<svg id="Layer_1" data-name="Layer 1" xmlns="http://www.w3.org/2000/svg" viewBox="0 0 311.21 167.82"><defs><style>.cls-1{fill:#d71a60;}</style></defs><title>Artboard 14</title><path class="cls-1" d="M42.24,0,54,11v3H22.77v17.8h16l11.8,11v2.89H22.77V76.71H20.08L7.87,65.84V9.94L0,2.9V0Z"/><path class="cls-1" d="M96.69,14.81,109,25.68v51h-2.69L101,72.16,90.38,75.88h-8.9c-5.49,0-7.25-.41-14-6.31-6.63-5.59-7.87-8.39-7.87-13.36V14.81h2.7L74.65,25.68V61.91H85L94,59V14.81Z"/><path class="cls-1" d="M127.34,0l11.6,10.45v5.18h4.14l11.8,11v3H138.94V62.53h6.62l11.8,10.35v3H146.49c-5.59,0-7.24-.41-14.08-6.31C125.89,64,124,61.18,124,56.21V28.47l-10.25-9.83v-3h10.35V0Z"/><path class="cls-1" d="M199.08,14.81,211.4,25.68v51h-2.69l-5.28-4.55-10.66,3.72h-8.9c-5.49,0-7.25-.41-14-6.31C163.26,64,162,61.18,162,56.21V14.81h2.7L177,25.68V61.91h10.35l9-2.9V14.81Z"/><path class="cls-1" d="M247.23,29.61l-9,4.55V76.71h-2.79L223.21,65.84v-51h2.69l6.42,5.58,9.52-4.76h3.21l11.91,11v3Z"/><path class="cls-1" d="M279.74,44.31l16.87-7.76V29.09H279.22c-1.86,0-2.8.83-2.8,3V62.53h23l11.81,10.35v3H284.09c-5.6,0-7.25-.41-14.09-6.31-6.41-5.59-8.38-8.39-8.38-13.36V27.12c0-7.55,4.35-11.49,11.08-11.49h16.46c5.48,0,7.14.42,14,6.32,6,5.28,7.66,8,7.87,12.32v11l-19.77,8.7-11.49-7.56Z"/><path class="cls-1" d="M42.24,91.11l11.8,11v3H22.77v17.81h16l11.8,11v2.9H22.77v31.06H20.08L7.87,157v-55.9L0,94v-2.9Z"/><polygon class="cls-1" points="60.46 82.83 72.68 93.6 72.68 106.53 69.88 106.53 57.67 95.66 57.67 82.83 60.46 82.83"/><polygon class="cls-1" points="60.46 105.92 72.68 116.68 72.68 167.82 69.88 167.82 57.67 156.95 57.67 105.92 60.46 105.92"/><path class="cls-1" d="M107.15,106.74c5.38,0,7.14.42,14,6.32,6.53,5.59,7.77,8.38,7.77,13.35v15.11H126.2L114,130.65v-9.93H99.8c-1.55.2-2.28,1-2.28,2.89v30h19.36L128.68,164v3H105c-5.59,0-7.25-.41-14.08-6.31-6.42-5.6-8.39-8.39-8.39-13.36V118.23c0-7.55,4.35-11.49,11.08-11.49Z"/><path class="cls-1" d="M144.73,91.11l11.6,10.45v5.18h4.14l11.8,11v3H156.33v32.92H163L174.76,164v3H163.89c-5.59,0-7.25-.41-14.08-6.31-6.53-5.6-8.39-8.39-8.39-13.36V119.58l-10.25-9.84v-3h10.35V91.11Z"/><path class="cls-1" d="M180.24,82.83,192.46,93.6v12.93h-2.79L177.45,95.66V82.83Zm0,23.08,12.22,10.77v51.14h-2.79L177.45,157v-51Z"/><path class="cls-1" d="M229.83,106.74c5.49,0,7.15.42,14,6.32,6.62,5.59,7.86,8.38,7.86,13.35V155.5c0,7.66-4.24,11.49-11.17,11.49H224.14c-5.49,0-7.25-.41-14-6.31-6.62-5.6-7.87-8.39-7.87-13.36V118.23c0-7.55,4.35-11.49,11.08-11.49Zm6.83,14H220.1c-1.66,0-2.79.72-2.79,2.89V153h16.56c1.76,0,2.79-.73,2.79-2.9Z"/><path class="cls-1" d="M289.05,106.74c5.49,0,7.14.42,14,6.32,6.62,5.59,7.86,8.38,7.86,13.35v41.41H308.2L295.88,157V120.72H285.12l-8.59,4.14v43h-2.8L261.51,157v-51h2.7l6.31,5.59,9.63-4.76Z"/></svg>