<svg id="Layer_1" data-name="Layer 1" xmlns="http://www.w3.org/2000/svg" xmlns:xlink="http://www.w3.org/1999/xlink" viewBox="0 0 465.68 178.23"><defs><style>.cls-1{fill:none;}.cls-2{fill:#2a2f32;}.cls-3{clip-path:url(#clip-path);}.cls-4{fill:#78bee9;}</style><clipPath id="clip-path"><rect class="cls-1" width="465.68" height="178.23"/></clipPath></defs><title>Artboard 13</title><polygon class="cls-2" points="236.34 55.79 227.23 55.79 227.23 50.89 251.06 50.89 251.06 55.79 241.82 55.79 241.82 83.05 236.34 83.05 236.34 55.79 236.34 55.79"/><path class="cls-2" d="M272.88,50.89h5.35l12,32.16h-5.71l-2.45-6.93H269l-2.4,6.93h-5.71l12-32.16Zm7.61,20.52L275.6,57.46h-.09l-4.85,13.95Z"/><polygon class="cls-2" points="305.94 50.89 311.38 50.89 327.1 73.99 327.19 73.99 327.19 50.89 332.62 50.89 332.62 83.05 327.05 83.05 311.52 60.36 311.42 60.36 311.42 83.05 305.94 83.05 305.94 50.89 305.94 50.89"/><path class="cls-2" d="M351.19,50.89h10.23c10.19,0,16.71,6.62,16.71,16.13s-6.24,16-16.57,16H351.19V50.89Zm10.05,27.27c6.8,0,11.24-4.76,11.24-11.14s-4.49-11.24-11-11.24h-4.84V78.16Z"/><polygon class="cls-2" points="394.3 50.89 414.55 50.89 414.55 55.78 399.78 55.78 399.78 64.66 411.69 64.66 411.69 69.56 399.78 69.56 399.78 78.16 415.5 78.16 415.5 83.05 394.3 83.05 394.3 50.89 394.3 50.89"/><g class="cls-3"><polygon class="cls-2" points="460.2 50.89 449.6 70.14 449.51 70.14 438.91 50.89 433.43 50.89 433.43 83.05 438.91 83.05 438.91 61.54 438.96 61.54 447.74 76.85 451.32 76.85 460.11 61.54 460.2 61.54 460.2 83.05 465.68 83.05 465.68 50.89 460.2 50.89 460.2 50.89"/><path class="cls-4" d="M179.23,141.94,165.71,77.13l9.51-39.29a6.25,6.25,0,0,0-.75-4.26L147.69,1.8A5.7,5.7,0,0,0,142.94.05L78.13,13.81l-40-10.26a6.23,6.23,0,0,0-4.25.75L1.8,30.83A5.7,5.7,0,0,0,.05,35.58L13.56,100.4l-9.51,40a6.27,6.27,0,0,0,.75,4.26l26.78,31.78a5.32,5.32,0,0,0,3.75,1.75h1l64.82-13.52,40,9.52c.25,0,.75.25,1,.25a4.32,4.32,0,0,0,3-1l32-26.52a5.14,5.14,0,0,0,2-5m-43.55,21-27-6.5,18.77-29.78L135.68,163ZM21.82,107.9,52.1,126.68l-36.79,8.25,6.51-27Zm46.3,15.27L55.35,67.61l55.81-12.5,12.76,55.55-55.8,12.51ZM43.34,14.82l27,7L51.6,51.35,43.34,14.82ZM157.2,69.62l-30-18.27,36.54-8.25L157.2,69.62ZM141.69,10.06,161.2,33.83l-101.59,23,21-33.78,61.06-13ZM33.83,16.82,57.35,118.67,22.82,97.4,10.05,36.33,33.83,16.82Zm3.25,151.39L17.56,144.45l101.85-23L98.14,155.21l-61.06,13Zm108.11-7.5-23-101.11L156,80.13l12.76,61.07-23.52,19.51Z"/></g><path class="cls-2" d="M236.11,99.31h9c5.88,0,8.42,3.37,8.42,7.88,0,4.26-2.33,6.73-6.34,7.55l7,10h-3.72l-6.73-9.7h-4.56v9.7h-3.11V99.31Zm8.16,12.89c4.23,0,6.06-2.15,6.06-5.08,0-3.26-2.12-5-5.63-5h-5.48V112.2Z"/><polygon class="cls-2" points="266.53 99.31 282.11 99.31 282.11 102.14 269.64 102.14 269.64 110.66 279.85 110.66 279.85 113.49 269.64 113.49 269.64 121.91 282.86 121.91 282.86 124.73 266.53 124.73 266.53 99.31 266.53 99.31"/><path class="cls-2" d="M293.55,121l2-2.4a9.14,9.14,0,0,0,7,3.44c3.12,0,5.23-1.43,5.23-3.9,0-2.83-2.29-3.59-5.7-4.87-3.75-1.4-7.59-3-7.59-7.49,0-3.8,3.4-6.73,7.77-6.73a12.83,12.83,0,0,1,8,3l-1.9,2.47a10.08,10.08,0,0,0-6.13-2.58c-2.39,0-4.51,1.29-4.54,3.73s2.25,3.33,5.44,4.55c4.26,1.68,7.88,2.83,7.88,7.59S307,125,302.53,125a12.16,12.16,0,0,1-9-3.94"/><polygon class="cls-2" points="323.39 99.31 338.97 99.31 338.97 102.14 326.51 102.14 326.51 110.66 336.72 110.66 336.72 113.49 326.51 113.49 326.51 121.91 339.72 121.91 339.72 124.73 323.39 124.73 323.39 99.31 323.39 99.31"/><path class="cls-2" d="M359.43,99.31h3.12l9.67,25.42H369l-2.29-6.19H355.31l-2.25,6.19H349.8l9.63-25.42Zm6.27,16.51L361,103.07h-.07l-4.62,12.75Z"/><path class="cls-2" d="M383.7,99.31h9c5.87,0,8.42,3.37,8.42,7.88,0,4.26-2.33,6.73-6.34,7.55l7,10h-3.73l-6.73-9.7h-4.55v9.7H383.7V99.31Zm8.16,12.89c4.22,0,6.05-2.15,6.05-5.08,0-3.26-2.11-5-5.62-5h-5.48V112.2Z"/><g class="cls-3"><path class="cls-2" d="M412.15,112.09c0-7.19,4.51-13,12.64-13a12.67,12.67,0,0,1,9.92,4.87l-2.33,1.93a9.51,9.51,0,0,0-7.59-3.83c-5.77,0-9.39,4.23-9.39,10.06,0,6.09,4.05,9.89,9.42,9.89a9.46,9.46,0,0,0,7.59-3.83l2.33,2a12.31,12.31,0,0,1-9.92,4.79c-6.87,0-12.67-4.51-12.67-12.82"/><polygon class="cls-2" points="462.64 99.9 462.64 111.55 449.66 111.55 449.66 99.9 446.62 99.9 446.62 124.74 449.66 124.74 449.66 114.31 462.64 114.31 462.64 124.74 465.68 124.74 465.68 99.9 462.64 99.9 462.64 99.9"/></g></svg>